<mxfile host="Electron" modified="2024-06-18T10:06:44.985Z" agent="Mozilla/5.0 (Windows NT 10.0; Win64; x64) AppleWebKit/537.36 (KHTML, like Gecko) draw.io/22.0.2 Chrome/114.0.5735.289 Electron/25.8.4 Safari/537.36" etag="8oF3-5wbas50glMMKMjZ" version="22.0.2" type="device">
  <diagram name="第 1 页" id="9ke-nxglWtwf7gf6Nw-9">
    <mxGraphModel dx="882" dy="577" grid="0" gridSize="10" guides="1" tooltips="1" connect="1" arrows="1" fold="1" page="1" pageScale="1" pageWidth="827" pageHeight="1169" math="0" shadow="0">
      <root>
        <mxCell id="0" />
        <mxCell id="1" parent="0" />
        <mxCell id="cNT76rbcd7cARgcNGhmo-7" value="controller层收到请求" style="rounded=1;whiteSpace=wrap;html=1;arcSize=50;" vertex="1" parent="1">
          <mxGeometry x="130" y="160" width="140" height="20" as="geometry" />
        </mxCell>
        <mxCell id="cNT76rbcd7cARgcNGhmo-8" value="sa-token拦截器拦截请求" style="rounded=1;whiteSpace=wrap;html=1;arcSize=50;" vertex="1" parent="1">
          <mxGeometry x="320" y="160" width="160" height="20" as="geometry" />
        </mxCell>
        <mxCell id="cNT76rbcd7cARgcNGhmo-9" value="从请求头中提取 session_id" style="rounded=1;whiteSpace=wrap;html=1;arcSize=50;" vertex="1" parent="1">
          <mxGeometry x="320" y="200" width="160" height="20" as="geometry" />
        </mxCell>
        <mxCell id="cNT76rbcd7cARgcNGhmo-10" value="" style="endArrow=classic;html=1;rounded=0;entryX=0.5;entryY=0;entryDx=0;entryDy=0;" edge="1" parent="1" source="cNT76rbcd7cARgcNGhmo-8" target="cNT76rbcd7cARgcNGhmo-9">
          <mxGeometry width="50" height="50" relative="1" as="geometry">
            <mxPoint x="430" y="230" as="sourcePoint" />
            <mxPoint x="480" y="180" as="targetPoint" />
          </mxGeometry>
        </mxCell>
        <mxCell id="cNT76rbcd7cARgcNGhmo-11" value="从session中获取 user_id" style="rounded=1;whiteSpace=wrap;html=1;arcSize=50;" vertex="1" parent="1">
          <mxGeometry x="320" y="240" width="160" height="20" as="geometry" />
        </mxCell>
        <mxCell id="cNT76rbcd7cARgcNGhmo-12" value="" style="endArrow=classic;html=1;rounded=0;" edge="1" parent="1" source="cNT76rbcd7cARgcNGhmo-9" target="cNT76rbcd7cARgcNGhmo-11">
          <mxGeometry width="50" height="50" relative="1" as="geometry">
            <mxPoint x="410" y="190" as="sourcePoint" />
            <mxPoint x="410" y="210" as="targetPoint" />
          </mxGeometry>
        </mxCell>
        <mxCell id="cNT76rbcd7cARgcNGhmo-13" value="&lt;font style=&quot;font-size: 12px;&quot;&gt;依据user_id查询角色码&lt;/font&gt;" style="rounded=1;whiteSpace=wrap;html=1;arcSize=50;" vertex="1" parent="1">
          <mxGeometry x="540" y="240" width="200" height="20" as="geometry" />
        </mxCell>
        <mxCell id="cNT76rbcd7cARgcNGhmo-14" value="&lt;font style=&quot;font-size: 12px;&quot;&gt;依据角色码初步鉴权&lt;/font&gt;" style="rounded=1;whiteSpace=wrap;html=1;arcSize=50;" vertex="1" parent="1">
          <mxGeometry x="320" y="280" width="160" height="20" as="geometry" />
        </mxCell>
        <mxCell id="cNT76rbcd7cARgcNGhmo-15" value="" style="endArrow=classic;html=1;rounded=0;" edge="1" parent="1" source="cNT76rbcd7cARgcNGhmo-11" target="cNT76rbcd7cARgcNGhmo-13">
          <mxGeometry width="50" height="50" relative="1" as="geometry">
            <mxPoint x="400" y="300" as="sourcePoint" />
            <mxPoint x="450" y="250" as="targetPoint" />
          </mxGeometry>
        </mxCell>
        <mxCell id="cNT76rbcd7cARgcNGhmo-16" value="" style="endArrow=classic;html=1;rounded=0;edgeStyle=orthogonalEdgeStyle;" edge="1" parent="1" source="cNT76rbcd7cARgcNGhmo-13" target="cNT76rbcd7cARgcNGhmo-14">
          <mxGeometry width="50" height="50" relative="1" as="geometry">
            <mxPoint x="450" y="260" as="sourcePoint" />
            <mxPoint x="490" y="260" as="targetPoint" />
            <Array as="points">
              <mxPoint x="640" y="290" />
            </Array>
          </mxGeometry>
        </mxCell>
        <mxCell id="cNT76rbcd7cARgcNGhmo-17" value="" style="endArrow=classic;html=1;rounded=0;edgeStyle=orthogonalEdgeStyle;" edge="1" parent="1" source="cNT76rbcd7cARgcNGhmo-7" target="cNT76rbcd7cARgcNGhmo-8">
          <mxGeometry width="50" height="50" relative="1" as="geometry">
            <mxPoint x="550" y="270" as="sourcePoint" />
            <mxPoint x="460" y="300" as="targetPoint" />
            <Array as="points">
              <mxPoint x="410" y="170" />
              <mxPoint x="410" y="170" />
            </Array>
          </mxGeometry>
        </mxCell>
        <mxCell id="cNT76rbcd7cARgcNGhmo-18" value="" style="rhombus;whiteSpace=wrap;html=1;" vertex="1" parent="1">
          <mxGeometry x="390" y="320" width="20" height="20" as="geometry" />
        </mxCell>
        <mxCell id="cNT76rbcd7cARgcNGhmo-20" value="" style="endArrow=classic;html=1;rounded=0;edgeStyle=orthogonalEdgeStyle;" edge="1" parent="1" source="cNT76rbcd7cARgcNGhmo-14" target="cNT76rbcd7cARgcNGhmo-18">
          <mxGeometry width="50" height="50" relative="1" as="geometry">
            <mxPoint x="560" y="280" as="sourcePoint" />
            <mxPoint x="470" y="310" as="targetPoint" />
            <Array as="points">
              <mxPoint x="400" y="300" />
              <mxPoint x="400" y="300" />
            </Array>
          </mxGeometry>
        </mxCell>
        <mxCell id="cNT76rbcd7cARgcNGhmo-21" value="初步鉴权" style="rounded=1;whiteSpace=wrap;html=1;arcSize=50;" vertex="1" parent="1">
          <mxGeometry x="130" y="360" width="140" height="20" as="geometry" />
        </mxCell>
        <mxCell id="cNT76rbcd7cARgcNGhmo-22" value="" style="endArrow=classic;html=1;rounded=0;edgeStyle=orthogonalEdgeStyle;" edge="1" parent="1" source="cNT76rbcd7cARgcNGhmo-18" target="cNT76rbcd7cARgcNGhmo-21">
          <mxGeometry width="50" height="50" relative="1" as="geometry">
            <mxPoint x="390" y="390" as="sourcePoint" />
            <mxPoint x="279" y="390" as="targetPoint" />
            <Array as="points">
              <mxPoint x="200" y="330" />
            </Array>
          </mxGeometry>
        </mxCell>
        <mxCell id="cNT76rbcd7cARgcNGhmo-24" value="通过鉴权" style="edgeLabel;html=1;align=center;verticalAlign=middle;resizable=0;points=[];" vertex="1" connectable="0" parent="cNT76rbcd7cARgcNGhmo-22">
          <mxGeometry x="0.3681" y="1" relative="1" as="geometry">
            <mxPoint x="120" y="-11" as="offset" />
          </mxGeometry>
        </mxCell>
        <mxCell id="cNT76rbcd7cARgcNGhmo-23" value="从请求中提取 club_id" style="rounded=1;whiteSpace=wrap;html=1;arcSize=50;" vertex="1" parent="1">
          <mxGeometry x="130" y="440" width="140" height="20" as="geometry" />
        </mxCell>
        <mxCell id="cNT76rbcd7cARgcNGhmo-27" value="" style="endArrow=classic;html=1;rounded=0;edgeStyle=orthogonalEdgeStyle;" edge="1" parent="1" source="cNT76rbcd7cARgcNGhmo-21" target="cNT76rbcd7cARgcNGhmo-23">
          <mxGeometry width="50" height="50" relative="1" as="geometry">
            <mxPoint x="250" y="220" as="sourcePoint" />
            <mxPoint x="330" y="220" as="targetPoint" />
            <Array as="points" />
          </mxGeometry>
        </mxCell>
        <mxCell id="cNT76rbcd7cARgcNGhmo-28" value="依据club_id进一步鉴权" style="rounded=1;whiteSpace=wrap;html=1;arcSize=50;" vertex="1" parent="1">
          <mxGeometry x="320" y="440" width="160" height="20" as="geometry" />
        </mxCell>
        <mxCell id="cNT76rbcd7cARgcNGhmo-30" value="" style="endArrow=classic;html=1;rounded=0;edgeStyle=orthogonalEdgeStyle;" edge="1" parent="1" source="cNT76rbcd7cARgcNGhmo-23" target="cNT76rbcd7cARgcNGhmo-28">
          <mxGeometry width="50" height="50" relative="1" as="geometry">
            <mxPoint x="210" y="430" as="sourcePoint" />
            <mxPoint x="210" y="450" as="targetPoint" />
            <Array as="points" />
          </mxGeometry>
        </mxCell>
        <mxCell id="cNT76rbcd7cARgcNGhmo-31" value="&lt;font style=&quot;font-size: 12px;&quot;&gt;依据club_id和user_id查询用户角色&lt;/font&gt;" style="rounded=1;whiteSpace=wrap;html=1;arcSize=50;" vertex="1" parent="1">
          <mxGeometry x="540" y="440" width="200" height="20" as="geometry" />
        </mxCell>
        <mxCell id="cNT76rbcd7cARgcNGhmo-32" value="" style="endArrow=classic;html=1;rounded=0;edgeStyle=orthogonalEdgeStyle;" edge="1" parent="1" source="cNT76rbcd7cARgcNGhmo-28" target="cNT76rbcd7cARgcNGhmo-31">
          <mxGeometry width="50" height="50" relative="1" as="geometry">
            <mxPoint x="280" y="420" as="sourcePoint" />
            <mxPoint x="330" y="420" as="targetPoint" />
            <Array as="points" />
          </mxGeometry>
        </mxCell>
        <mxCell id="cNT76rbcd7cARgcNGhmo-33" value="依据角色进一步鉴权" style="rounded=1;whiteSpace=wrap;html=1;arcSize=50;" vertex="1" parent="1">
          <mxGeometry x="320" y="480" width="160" height="20" as="geometry" />
        </mxCell>
        <mxCell id="cNT76rbcd7cARgcNGhmo-34" value="" style="endArrow=classic;html=1;rounded=0;edgeStyle=orthogonalEdgeStyle;" edge="1" parent="1" source="cNT76rbcd7cARgcNGhmo-31" target="cNT76rbcd7cARgcNGhmo-33">
          <mxGeometry width="50" height="50" relative="1" as="geometry">
            <mxPoint x="490" y="420" as="sourcePoint" />
            <mxPoint x="530" y="420" as="targetPoint" />
            <Array as="points">
              <mxPoint x="640" y="490" />
            </Array>
          </mxGeometry>
        </mxCell>
        <mxCell id="cNT76rbcd7cARgcNGhmo-35" value="" style="rhombus;whiteSpace=wrap;html=1;" vertex="1" parent="1">
          <mxGeometry x="390" y="520" width="20" height="20" as="geometry" />
        </mxCell>
        <mxCell id="cNT76rbcd7cARgcNGhmo-36" value="" style="endArrow=classic;html=1;rounded=0;edgeStyle=orthogonalEdgeStyle;" edge="1" parent="1" source="cNT76rbcd7cARgcNGhmo-33" target="cNT76rbcd7cARgcNGhmo-35">
          <mxGeometry width="50" height="50" relative="1" as="geometry">
            <mxPoint x="410" y="390" as="sourcePoint" />
            <mxPoint x="410" y="410" as="targetPoint" />
            <Array as="points" />
          </mxGeometry>
        </mxCell>
        <mxCell id="cNT76rbcd7cARgcNGhmo-37" value="" style="endArrow=classic;html=1;rounded=0;edgeStyle=orthogonalEdgeStyle;exitX=0;exitY=0.5;exitDx=0;exitDy=0;" edge="1" parent="1" source="cNT76rbcd7cARgcNGhmo-35" target="cNT76rbcd7cARgcNGhmo-39">
          <mxGeometry width="50" height="50" relative="1" as="geometry">
            <mxPoint x="400" y="420" as="sourcePoint" />
            <mxPoint x="250" y="420" as="targetPoint" />
            <Array as="points" />
          </mxGeometry>
        </mxCell>
        <mxCell id="cNT76rbcd7cARgcNGhmo-38" value="通过鉴权" style="edgeLabel;html=1;align=center;verticalAlign=middle;resizable=0;points=[];" vertex="1" connectable="0" parent="cNT76rbcd7cARgcNGhmo-37">
          <mxGeometry x="0.3681" y="1" relative="1" as="geometry">
            <mxPoint x="42" y="-11" as="offset" />
          </mxGeometry>
        </mxCell>
        <mxCell id="cNT76rbcd7cARgcNGhmo-39" value="请求进入service层" style="rounded=1;whiteSpace=wrap;html=1;arcSize=50;" vertex="1" parent="1">
          <mxGeometry x="130" y="520" width="140" height="20" as="geometry" />
        </mxCell>
        <mxCell id="cNT76rbcd7cARgcNGhmo-40" value="" style="ellipse;html=1;shape=endState;fillColor=#000000;strokeColor=#000000;strokeWidth=1;perimeterSpacing=0;gradientColor=none;fillStyle=auto;" vertex="1" parent="1">
          <mxGeometry x="190" y="600" width="20" height="20" as="geometry" />
        </mxCell>
        <mxCell id="cNT76rbcd7cARgcNGhmo-41" value="" style="endArrow=classic;html=1;rounded=0;edgeStyle=orthogonalEdgeStyle;" edge="1" parent="1" source="cNT76rbcd7cARgcNGhmo-39" target="cNT76rbcd7cARgcNGhmo-40">
          <mxGeometry width="50" height="50" relative="1" as="geometry">
            <mxPoint x="210" y="430" as="sourcePoint" />
            <mxPoint x="210" y="450" as="targetPoint" />
            <Array as="points">
              <mxPoint x="200" y="570" />
              <mxPoint x="200" y="570" />
            </Array>
          </mxGeometry>
        </mxCell>
        <mxCell id="cNT76rbcd7cARgcNGhmo-44" value="" style="ellipse;whiteSpace=wrap;html=1;aspect=fixed;fillColor=#000000;" vertex="1" parent="1">
          <mxGeometry x="190" y="120" width="20" height="20" as="geometry" />
        </mxCell>
        <mxCell id="cNT76rbcd7cARgcNGhmo-46" value="" style="endArrow=classic;html=1;rounded=0;edgeStyle=orthogonalEdgeStyle;" edge="1" parent="1" source="cNT76rbcd7cARgcNGhmo-44" target="cNT76rbcd7cARgcNGhmo-7">
          <mxGeometry width="50" height="50" relative="1" as="geometry">
            <mxPoint x="280" y="180" as="sourcePoint" />
            <mxPoint x="330" y="180" as="targetPoint" />
            <Array as="points" />
          </mxGeometry>
        </mxCell>
        <mxCell id="cNT76rbcd7cARgcNGhmo-53" value="" style="endArrow=classic;html=1;rounded=0;edgeStyle=orthogonalEdgeStyle;" edge="1" parent="1" source="cNT76rbcd7cARgcNGhmo-18" target="cNT76rbcd7cARgcNGhmo-55">
          <mxGeometry width="50" height="50" relative="1" as="geometry">
            <mxPoint x="410" y="390" as="sourcePoint" />
            <mxPoint x="520" y="400" as="targetPoint" />
            <Array as="points">
              <mxPoint x="400" y="350" />
              <mxPoint x="400" y="350" />
            </Array>
          </mxGeometry>
        </mxCell>
        <mxCell id="cNT76rbcd7cARgcNGhmo-54" value="未通过鉴权" style="edgeLabel;html=1;align=center;verticalAlign=middle;resizable=0;points=[];" vertex="1" connectable="0" parent="cNT76rbcd7cARgcNGhmo-53">
          <mxGeometry x="0.3681" y="1" relative="1" as="geometry">
            <mxPoint x="39" y="-4" as="offset" />
          </mxGeometry>
        </mxCell>
        <mxCell id="cNT76rbcd7cARgcNGhmo-55" value="&lt;font style=&quot;font-size: 12px;&quot;&gt;抛出异常，携带业务码403&lt;/font&gt;" style="rounded=1;whiteSpace=wrap;html=1;arcSize=50;" vertex="1" parent="1">
          <mxGeometry x="320" y="360" width="160" height="20" as="geometry" />
        </mxCell>
        <mxCell id="cNT76rbcd7cARgcNGhmo-57" value="" style="ellipse;html=1;shape=endState;fillColor=#000000;strokeColor=#000000;strokeWidth=1;perimeterSpacing=0;gradientColor=none;fillStyle=auto;" vertex="1" parent="1">
          <mxGeometry x="390" y="400" width="20" height="20" as="geometry" />
        </mxCell>
        <mxCell id="cNT76rbcd7cARgcNGhmo-59" value="" style="endArrow=classic;html=1;rounded=0;edgeStyle=orthogonalEdgeStyle;" edge="1" parent="1" source="cNT76rbcd7cARgcNGhmo-55" target="cNT76rbcd7cARgcNGhmo-57">
          <mxGeometry width="50" height="50" relative="1" as="geometry">
            <mxPoint x="410" y="310" as="sourcePoint" />
            <mxPoint x="410" y="330" as="targetPoint" />
            <Array as="points" />
          </mxGeometry>
        </mxCell>
        <mxCell id="cNT76rbcd7cARgcNGhmo-60" value="" style="endArrow=classic;html=1;rounded=0;edgeStyle=orthogonalEdgeStyle;" edge="1" parent="1" target="cNT76rbcd7cARgcNGhmo-62" source="cNT76rbcd7cARgcNGhmo-35">
          <mxGeometry width="50" height="50" relative="1" as="geometry">
            <mxPoint x="400" y="540" as="sourcePoint" />
            <mxPoint x="520" y="600" as="targetPoint" />
            <Array as="points" />
          </mxGeometry>
        </mxCell>
        <mxCell id="cNT76rbcd7cARgcNGhmo-61" value="未通过鉴权" style="edgeLabel;html=1;align=center;verticalAlign=middle;resizable=0;points=[];" vertex="1" connectable="0" parent="cNT76rbcd7cARgcNGhmo-60">
          <mxGeometry x="0.3681" y="1" relative="1" as="geometry">
            <mxPoint x="39" y="-4" as="offset" />
          </mxGeometry>
        </mxCell>
        <mxCell id="cNT76rbcd7cARgcNGhmo-62" value="&lt;font style=&quot;font-size: 12px;&quot;&gt;抛出异常，携带业务码403&lt;/font&gt;" style="rounded=1;whiteSpace=wrap;html=1;arcSize=50;" vertex="1" parent="1">
          <mxGeometry x="320" y="560" width="160" height="20" as="geometry" />
        </mxCell>
        <mxCell id="cNT76rbcd7cARgcNGhmo-63" value="" style="ellipse;html=1;shape=endState;fillColor=#000000;strokeColor=#000000;strokeWidth=1;perimeterSpacing=0;gradientColor=none;fillStyle=auto;" vertex="1" parent="1">
          <mxGeometry x="390" y="600" width="20" height="20" as="geometry" />
        </mxCell>
        <mxCell id="cNT76rbcd7cARgcNGhmo-64" value="" style="endArrow=classic;html=1;rounded=0;edgeStyle=orthogonalEdgeStyle;" edge="1" parent="1" source="cNT76rbcd7cARgcNGhmo-62" target="cNT76rbcd7cARgcNGhmo-63">
          <mxGeometry width="50" height="50" relative="1" as="geometry">
            <mxPoint x="410" y="510" as="sourcePoint" />
            <mxPoint x="410" y="530" as="targetPoint" />
            <Array as="points" />
          </mxGeometry>
        </mxCell>
        <mxCell id="cNT76rbcd7cARgcNGhmo-72" value="" style="group" vertex="1" connectable="0" parent="1">
          <mxGeometry x="100" y="80" width="200" height="550" as="geometry" />
        </mxCell>
        <mxCell id="cNT76rbcd7cARgcNGhmo-66" value="" style="shape=partialRectangle;whiteSpace=wrap;html=1;top=0;bottom=0;fillColor=none;" vertex="1" parent="cNT76rbcd7cARgcNGhmo-72">
          <mxGeometry width="200" height="550" as="geometry" />
        </mxCell>
        <mxCell id="cNT76rbcd7cARgcNGhmo-71" value="&lt;font style=&quot;font-size: 16px;&quot;&gt;公告模块&lt;/font&gt;" style="text;html=1;strokeColor=none;fillColor=none;align=center;verticalAlign=middle;whiteSpace=wrap;rounded=0;" vertex="1" parent="cNT76rbcd7cARgcNGhmo-72">
          <mxGeometry width="200" height="30" as="geometry" />
        </mxCell>
        <mxCell id="cNT76rbcd7cARgcNGhmo-77" value="" style="group" vertex="1" connectable="0" parent="1">
          <mxGeometry x="300" y="80" width="200" height="550" as="geometry" />
        </mxCell>
        <mxCell id="cNT76rbcd7cARgcNGhmo-67" value="" style="shape=partialRectangle;whiteSpace=wrap;html=1;top=0;bottom=0;fillColor=none;" vertex="1" parent="cNT76rbcd7cARgcNGhmo-77">
          <mxGeometry width="200" height="550" as="geometry" />
        </mxCell>
        <mxCell id="cNT76rbcd7cARgcNGhmo-76" value="&lt;font style=&quot;font-size: 16px;&quot;&gt;鉴权模块&lt;/font&gt;" style="text;html=1;strokeColor=none;fillColor=none;align=center;verticalAlign=middle;whiteSpace=wrap;rounded=0;" vertex="1" parent="cNT76rbcd7cARgcNGhmo-77">
          <mxGeometry width="200" height="40" as="geometry" />
        </mxCell>
        <mxCell id="cNT76rbcd7cARgcNGhmo-79" value="" style="group" vertex="1" connectable="0" parent="1">
          <mxGeometry x="520" y="160" width="240" height="160" as="geometry" />
        </mxCell>
        <mxCell id="cNT76rbcd7cARgcNGhmo-68" value="" style="shape=partialRectangle;whiteSpace=wrap;html=1;top=0;bottom=0;fillColor=none;" vertex="1" parent="cNT76rbcd7cARgcNGhmo-79">
          <mxGeometry width="240" height="160" as="geometry" />
        </mxCell>
        <mxCell id="cNT76rbcd7cARgcNGhmo-78" value="&lt;font style=&quot;font-size: 16px;&quot;&gt;用户账号管理模块&lt;/font&gt;" style="text;html=1;strokeColor=none;fillColor=none;align=center;verticalAlign=middle;whiteSpace=wrap;rounded=0;" vertex="1" parent="cNT76rbcd7cARgcNGhmo-79">
          <mxGeometry width="240" height="40" as="geometry" />
        </mxCell>
        <mxCell id="cNT76rbcd7cARgcNGhmo-83" value="" style="group" vertex="1" connectable="0" parent="1">
          <mxGeometry x="520" y="360" width="240" height="160" as="geometry" />
        </mxCell>
        <mxCell id="cNT76rbcd7cARgcNGhmo-70" value="" style="shape=partialRectangle;whiteSpace=wrap;html=1;top=0;bottom=0;fillColor=none;" vertex="1" parent="cNT76rbcd7cARgcNGhmo-83">
          <mxGeometry width="240" height="160" as="geometry" />
        </mxCell>
        <mxCell id="cNT76rbcd7cARgcNGhmo-80" value="&lt;font style=&quot;font-size: 17px;&quot;&gt;社团人员管理模块&amp;nbsp;&lt;/font&gt;" style="text;html=1;strokeColor=none;fillColor=none;align=center;verticalAlign=middle;whiteSpace=wrap;rounded=0;" vertex="1" parent="cNT76rbcd7cARgcNGhmo-83">
          <mxGeometry width="240" height="40" as="geometry" />
        </mxCell>
        <mxCell id="cNT76rbcd7cARgcNGhmo-84" value="&lt;font style=&quot;font-size: 20px;&quot;&gt;&lt;b&gt;社团负责人发布公告，controller层活动图&lt;/b&gt;&lt;/font&gt;" style="text;html=1;strokeColor=none;fillColor=none;align=center;verticalAlign=middle;whiteSpace=wrap;rounded=0;" vertex="1" parent="1">
          <mxGeometry x="80" y="40" width="680" height="40" as="geometry" />
        </mxCell>
      </root>
    </mxGraphModel>
  </diagram>
</mxfile>
